<svg width="20" height="20" xmlns="http://www.w3.org/2000/svg" class="icon icon-tabler icon-tabler-circuit-capacitor" stroke-width="2" stroke="currentColor" fill="none" stroke-linecap="round" stroke-linejoin="round">
 <g id="Layer_1">
  <title>Layer 1</title>
  <path id="svg_1" d="m10,18.5c-4.97238,0 -9,-3.80386 -9,-8.5c0,-4.69614 4.02762,-8.5 9,-8.5c4.97238,0 9,3.80386 9,8.5c0,4.69614 -4.02762,8.5 -9,8.5z" opacity="undefined" fill="#fff" stroke="#000"/>
  <path id="svg_2" d="m-192.00001,48.20001c197.02763,-29.70001 -92,-96 -37,-118c55,-22 133,62 133,66" opacity="NaN" stroke="#000" fill="#fff"/>
  <text xml:space="preserve" text-anchor="start" font-family="Noto Sans JP" font-size="24" stroke-width="0" id="svg_3" y="6.15005" x="-29.99942" stroke="#000" fill="#000000"/>
  <path d="m7.56254,8.88752c0,0 0.05715,-0.19859 0.43749,-0.37499c0.4318,-0.20027 0.92187,-0.59608 1.12498,-0.43749c0.04926,0.03846 0.0301,0.055 0.125,0.49999c0.09217,0.43222 0.09928,0.90024 -0.125,1.18748c-0.21758,0.27867 -0.62499,0.43749 -0.99998,0.62499c-0.25,0.125 -0.31604,0.13015 -0.49999,0c-0.2551,-0.18049 -0.51938,-0.41993 -0.68749,-0.62499c-0.14287,-0.17427 -0.34461,-0.53258 -0.74999,-0.99998c-0.40949,-0.47215 -0.74827,-0.91545 -0.81249,-1.18748c-0.04308,-0.18248 0,-0.37499 0,-0.68749c0,-0.25 0,-0.49999 0,-0.68749c0,-0.125 0,-0.25 0.0625,-0.3125c0,0 0.12088,-0.07152 0.25,-0.125c0.18259,-0.07563 0.16828,-0.13662 0.25,-0.25c0.10336,-0.14341 0.3125,-0.3125 0.49999,-0.43749c0.1875,-0.125 0.34334,-0.17991 0.37499,-0.37499c0.01001,-0.06169 0.01916,-0.34117 -0.0625,-0.37499c-0.05774,-0.02392 -0.125,0 -0.125,0c-0.25,0 -0.55148,-0.09289 -0.68749,-0.125c-0.06083,-0.01436 -0.03858,0.00476 -0.0625,0.0625c-0.03382,0.08166 -0.19591,0.17571 -0.37499,0.31249c-0.15706,0.11997 -0.22608,0.06726 -0.25,0.125c-0.03382,0.08166 -0.125,0.0625 -0.1875,0.125c-0.0625,0.0625 -0.11985,0.02418 -0.1875,0.1875c-0.07175,0.17322 -0.06726,0.35108 -0.125,0.37499c-0.16332,0.06765 -0.25,0.25 -0.3125,0.31249c-0.0625,0.0625 -0.04334,0.15367 -0.125,0.1875c-0.05774,0.02392 -0.13112,0.17652 -0.25,0.25c-0.05316,0.03286 -0.1875,0.1875 -0.1875,0.25c0,0 -0.0808,0.0808 -0.125,0.125c-0.04419,0.04419 -0.05735,0.08668 -0.125,0.25c-0.04783,0.11548 -0.09117,0.16834 -0.125,0.25c-0.04783,0.11548 -0.09496,0.25242 -0.125,0.43749c-0.03166,0.19509 -0.10108,0.37975 -0.125,0.43749c-0.03382,0.08166 -0.11499,0.2508 -0.125,0.31249c-0.03166,0.19509 -0.05325,0.26427 -0.125,0.43749c-0.03382,0.08166 -0.09117,0.16834 -0.125,0.25c-0.07175,0.17322 0,0.3125 0,0.49999c0,0 -0.03003,0.12742 0,0.3125c0.03166,0.19509 0.21789,0.36398 0.25,0.49999c0.02872,0.12165 -0.04141,0.20687 0.0625,0.37499c0.09294,0.15037 0.13966,0.25951 0.1875,0.37499c0.03382,0.08166 0.04334,0.15367 0.125,0.1875c0.05774,0.02392 0.07716,0.07201 0.125,0.1875c0.03382,0.08166 0.0625,0.125 0.0625,0.25c0,0.0625 0,0.0625 0,0.1875c0,0.125 0,0.1875 -0.0625,0.125c-0.0625,-0.0625 -0.31959,-0.43251 -0.62499,-0.87499c-0.25601,-0.37092 -0.39609,-0.64437 -0.49999,-0.81249c-0.04647,-0.07519 -0.125,-0.1875 -0.125,-0.31249c0,-0.125 -0.10669,-0.3308 -0.0625,-0.37499c0.04419,-0.04419 0.07201,-0.04783 0.1875,0c0.16332,0.06765 0.30299,0.31748 0.43749,0.56249c0.17537,0.31946 0.26189,0.55509 0.37499,0.74999c0.07015,0.12087 0.09628,0.31584 0.125,0.43749c0.03211,0.13601 0.15539,0.17648 0.1875,0.3125c0.02872,0.12165 0.03101,0.30673 0.0625,0.56249c0.03055,0.24812 0.11545,0.50257 0.1875,0.74999c0.05526,0.18976 0.09117,0.29333 0.125,0.37499c0.02392,0.05774 -0.02291,0.1264 0,0.3125c0.03149,0.25576 0.125,0.49999 0.125,0.68749c0,0 -0.05236,0.01014 -0.25,-0.1875c-0.19764,-0.19764 -0.22706,-0.51237 -0.43749,-0.87499c-0.22621,-0.3898 -0.49719,-0.72181 -0.56249,-0.93749c-0.01811,-0.05982 -0.09334,-0.11741 -0.125,-0.31249c-0.02002,-0.12339 0,-0.25 0,-0.3125c0,-0.0625 0.06756,-0.19419 0.125,-0.43749c0.03211,-0.13601 0.125,-0.3125 0.25,-0.43749c0.25,-0.25 0.52407,-0.61072 0.81249,-1.12498c0.20508,-0.36567 0.30448,-0.69309 0.43749,-0.87499c0.23621,-0.32304 0.77296,-0.65029 1.49998,-1.12498c0.71179,-0.46475 1.1345,-0.73532 1.24998,-0.68749c0.08166,0.03382 0.38098,0.49869 0.49999,1.06248c0.13164,0.62363 0.18391,1.38469 0.0625,1.93747c-0.0848,0.38608 -0.3125,0.49999 -0.49999,0.49999c-0.0625,0 -0.06605,0.00336 -0.125,-0.0625c-0.26689,-0.29819 -0.59251,-0.72722 -0.68749,-1.31248c-0.11012,-0.67861 -0.04198,-1.2116 0.1875,-1.56248c0.26718,-0.40852 0.80541,-0.70596 1.43748,-0.93749c0.37116,-0.13596 0.41665,-0.14179 0.49999,0.125c0.26354,0.84367 0.36785,1.96089 0.125,3.12495c-0.21811,1.04547 -0.80821,1.89992 -1.37498,2.06247c-0.36046,0.10338 -0.76322,0.00193 -1.12498,-0.49999c-0.40857,-0.56686 -0.68485,-1.35892 -0.87499,-2.18747c-0.18386,-0.80122 -0.24967,-1.68416 0.125,-2.31246c0.38545,-0.64639 1.24223,-0.99977 1.99997,-1.06248c0.74743,-0.06186 1.56826,0.00248 1.99997,0.56249c0.53011,0.68766 0.87886,1.74265 0.87499,2.81246c-0.00365,1.00776 -0.36322,1.91807 -1.12498,2.37496c-0.69677,0.41791 -1.72174,0.58735 -2.74996,0.31249c-0.81007,-0.21654 -1.13235,-0.86289 -1.24998,-1.74997c-0.15632,-1.17881 0.04619,-2.40438 0.49999,-3.49994c0.42785,-1.03291 0.97003,-1.72555 1.43748,-2.06247c0.29564,-0.21308 0.55673,-0.40601 0.81249,-0.43749c0.24812,-0.03055 0.43911,0.02002 0.56249,0c0.19509,-0.03166 0.37011,-0.22543 0.62499,-0.1875c0.36046,0.05364 0.9421,0.8401 1.43748,1.87497c0.43595,0.91074 0.51013,1.72969 0.3125,2.12497c-0.11858,0.23717 -0.32296,0.2677 -0.62499,0.1875c-0.487,-0.12933 -0.95114,-0.52231 -1.18748,-1.06248c-0.28563,-0.65285 -0.35373,-1.28813 -0.125,-1.74997c0.17761,-0.35862 0.72939,-0.59274 1.37498,-0.68749c0.49469,-0.07261 1.14421,0.29952 1.68747,1.12498c0.64829,0.98504 1.08701,2.11642 1.06248,2.99995c-0.01768,0.63712 -0.41472,1.09251 -0.99998,1.18748c-0.7403,0.12013 -1.24287,-0.00582 -1.49998,-0.31249c-0.50312,-0.60011 -0.78088,-1.61267 -0.87499,-2.68746c-0.07087,-0.80939 0,-1.49998 0,-1.99997c0,-0.25 0.0625,-0.3125 0.125,-0.37499c0.0625,-0.0625 0.29463,-0.20073 0.43749,-0.37499c0.05604,-0.06835 0.08642,-0.12976 0.0625,-0.1875c-0.10147,-0.24498 -0.69943,-0.51743 -1.24998,-0.68749c-0.32158,-0.09933 -0.43749,-0.125 -0.49999,-0.125c-0.125,0 -0.3674,-0.03084 -0.56249,-0.0625c-0.06169,-0.01001 -0.0625,0 -0.25,0c-0.125,0 -0.25,0 -0.25,0c-0.0625,0 -0.04409,0.02164 -0.1875,0.125c-0.22675,0.16343 -0.55152,0.31861 -0.62499,0.43749c-0.03286,0.05316 0.125,0.0625 0.49999,0.0625c0.49999,0 0.99707,-0.09369 1.49998,-0.125c0.37427,-0.0233 0.70686,-0.14609 0.87499,-0.25c0.15037,-0.09294 0.18917,-0.17314 0.25,-0.1875c0.13601,-0.03211 0.37499,-0.0625 0.62499,-0.1875c0.25,-0.125 0.3125,-0.125 0.37499,-0.125c0.0625,0 0.125,0 0.125,0c0.125,0 0.25,0 0.49999,0c0.1875,0 0.42926,0.08054 0.68749,0.1875c0.1826,0.07563 0.43173,0.28101 0.68749,0.3125c0.31015,0.03818 0.57683,0.14575 0.81249,0.25c0.20608,0.09116 0.33693,0.29809 0.56249,0.43749c0.16812,0.10391 0.3125,0.0625 0.43749,0.1875c0.0625,0.0625 0.27298,0.16024 0.49999,0.37499c0.1637,0.15486 0.29328,0.26162 0.37499,0.37499c0.10336,0.14341 0.1875,0.25 0.31249,0.37499c0.125,0.125 0.16828,0.26162 0.25,0.37499c0.10336,0.14341 0.13793,0.30079 0.25,0.43749c0.14287,0.17427 0.18428,0.33116 0.25,0.43749c0.07347,0.11888 0.08657,0.27325 0.24999,0.49999c0.10336,0.14341 0.16059,0.38331 0.25,0.62499c0.09697,0.26214 0.19963,0.55553 0.37499,0.87499c0.1345,0.24502 0.15695,0.50187 0.1875,0.74999c0.03148,0.25576 0.0625,0.49999 0.0625,0.74999c0,0.3125 0.0936,0.68285 0.125,0.99998c0.02463,0.24878 0,0.49999 -0.0625,0.74999c-0.0625,0.25 -0.125,0.49999 -0.3125,0.74999c-0.1875,0.25 -0.36569,0.59282 -0.49999,0.87499c-0.11075,0.23268 -0.20688,0.48243 -0.37499,0.68749c-0.14286,0.17427 -0.21565,0.40315 -0.37499,0.56249c-0.15934,0.15934 -0.3125,0.37499 -0.49999,0.49999c-0.1875,0.125 -0.29099,0.27431 -0.49999,0.43749c-0.28724,0.22427 -0.57492,0.40827 -0.74999,0.49999c-0.2768,0.14503 -0.50824,0.1722 -0.74999,0.31249c-0.1949,0.11311 -0.39522,0.09501 -0.49999,0.1875c-0.16893,0.14913 -0.25334,0.15878 -0.37499,0.1875c-0.13601,0.03211 -0.25,0.0625 -0.37499,0.125c-0.125,0.0625 -0.25,0.125 -0.3125,0.125c-0.1875,0 -0.30642,0.01401 -0.43749,0.0625c-0.24168,0.08941 -0.44701,0.07716 -0.56249,0.125c-0.08166,0.03382 -0.1875,0.0625 -0.43749,0.0625c-0.25,0 -0.49999,0 -0.62499,0c-0.125,0 -0.31249,0 -0.43749,0c-0.25,0 -0.43749,-0.0625 -0.68749,-0.125c-0.25,-0.0625 -0.43749,-0.125 -0.56249,-0.125c-0.1875,0 -0.43608,-0.13096 -0.68749,-0.1875c-0.31092,-0.06992 -0.71324,-0.12303 -0.93749,-0.24999c-0.07691,-0.04355 -0.21368,-0.08868 -0.3125,-0.1875c-0.19764,-0.19764 -0.38111,-0.30152 -0.49999,-0.37499c-0.10633,-0.06572 -0.22001,-0.14523 -0.3125,-0.25c-0.14913,-0.16893 -0.35578,-0.26162 -0.43749,-0.37499c-0.10336,-0.14341 -0.09065,-0.15315 -0.25,-0.3125c-0.15934,-0.15934 -0.23084,-0.34117 -0.3125,-0.37499c-0.05774,-0.02392 -0.0625,-0.0625 -0.0625,-0.1875c0,-0.25 -0.03101,-0.43173 -0.0625,-0.68749c-0.03055,-0.24812 -0.02463,-0.56371 0,-0.81249c0.0314,-0.31713 0.18012,-0.62954 0.37499,-0.93749c0.1205,-0.19042 0.26007,-0.36226 0.49999,-0.56249c0.21459,-0.17909 0.48734,-0.28808 0.81249,-0.37499c0.42694,-0.11413 0.68749,-0.0625 0.74999,0c0.125,0.125 0.38538,0.62075 0.68749,1.37498c0.32368,0.80809 0.54559,1.62351 0.49999,2.24996c-0.01871,0.25701 -0.1875,0.37499 -0.31249,0.37499c-0.1875,0 -0.59033,-0.153 -1.06248,-0.56249c-0.33386,-0.28956 -0.65428,-0.65872 -0.74999,-1.12498c-0.10053,-0.48978 -0.01529,-0.88324 0.125,-1.12498c0.11311,-0.1949 0.50084,-0.33968 0.93749,-0.3125c0.50291,0.03131 0.90366,0.34195 0.99998,0.74999c0.10052,0.42579 0.10741,0.85537 -0.0625,1.12498c-0.16661,0.26437 -0.55673,0.34351 -0.81249,0.37499c-0.24812,0.03055 -0.38349,-0.0118 -0.49999,-0.25c-0.22138,-0.45265 -0.1893,-1.14407 0.25,-1.68747c0.50318,-0.62243 1.36228,-0.87372 2.12497,-0.99998c0.74248,-0.12292 1.43989,0.14485 1.74997,0.68749c0.40311,0.70544 0.60296,1.68848 0.56249,2.49996c-0.03129,0.62733 -0.29852,1.04316 -0.62499,1.12498c-0.54897,0.13759 -1.21609,-0.0912 -1.81247,-0.62499c-0.52688,-0.47158 -0.9054,-1.04368 -0.99998,-1.74997c-0.07466,-0.55751 0.21283,-1.06935 0.74999,-1.31248c0.59445,-0.26906 1.31076,-0.28638 2.06247,-0.25c0.69794,0.03378 1.24801,0.51004 1.43748,1.12498c0.20327,0.65972 0.11707,1.47605 -0.25,1.93747c-0.33015,0.41502 -0.81134,0.61358 -1.37498,0.56249c-0.64985,-0.05891 -1.19142,-0.51938 -1.37498,-0.87499c-0.2087,-0.40431 -0.14715,-0.89074 0.125,-1.24998c0.34794,-0.4593 0.78972,-0.78001 1.37498,-0.87499c0.37015,-0.06007 0.69596,0.09726 0.81249,0.49999c0.17458,0.60336 0.13936,1.29648 -0.1875,1.74997c-0.20672,0.28681 -0.45159,0.39525 -0.68749,0.3125c-0.37763,-0.13247 -0.77254,-0.59445 -0.93748,-1.18748c-0.13503,-0.48545 -0.05635,-1.05688 0.37499,-1.18748c0.65799,-0.19922 1.65238,-0.05839 2.49996,0.37499c0.64895,0.33181 0.93307,0.68234 0.93749,1.06248c0.00514,0.44191 -0.30254,0.83348 -0.81249,1.06248c-0.30703,0.13788 -0.60132,0.19592 -0.87499,0c-0.46852,-0.33543 -0.90465,-0.91497 -0.87499,-1.68747c0.03034,-0.78998 0.81378,-1.49075 1.56248,-1.81247c0.47351,-0.20347 0.7815,-0.24778 1.06248,-0.0625c0.44273,0.29194 0.66697,1.06116 0.62499,1.87497c-0.036,0.69783 -0.46035,1.3097 -1.06248,1.43748c-0.9782,0.20759 -2.21998,0.19802 -3.18745,-0.0625c-0.26989,-0.07267 -0.34004,-0.2438 0,-0.68749c0.45779,-0.59734 1.52294,-0.95648 2.49996,-1.49998c0.8337,-0.46377 1.35295,-0.87327 1.62497,-0.93748c0.06083,-0.01436 0.38169,0.42053 0.62499,1.56248c0.26338,1.23622 0.24641,2.38468 0.125,2.93745c-0.0424,0.19304 -0.13965,0.20571 -0.68749,-0.25c-0.57858,-0.48128 -1.02928,-0.97122 -1.12498,-1.43748c-0.0754,-0.36734 0.1875,-0.87499 0.56249,-1.24998c0.49999,-0.49999 1.13975,-1.0497 1.62497,-1.62497c0.25802,-0.3059 0.38443,-0.65215 0.49999,-0.81249c0.18272,-0.25351 0.53113,-0.49612 0.56249,-0.87499c0.02062,-0.24914 0,-0.49999 0,-0.62499c0,-0.125 0,-0.3125 0,-0.43749c0,-0.25 0,-0.37499 0,-0.49999c0,0 0.06349,0.29518 0.1875,0.87499c0.13137,0.61422 0.27801,1.30834 0.37499,2.06247c0.08805,0.68468 0.10093,1.14823 -0.0625,1.37498c-0.15504,0.21511 -0.41383,0.28042 -0.56249,0.49999c-0.26685,0.39414 -0.34367,0.74666 -0.375,1.18748c-0.00443,0.06234 -0.01811,-0.00268 0,-0.0625c0.0653,-0.21567 0.2315,-0.41998 0.3125,-0.68749c0.14602,-0.48226 0.15621,-1.18514 0.1875,-1.81247c0.04047,-0.81148 -0.20766,-1.58334 -0.56249,-2.24996c-0.44826,-0.84214 -0.81249,-1.18748 -0.93748,-1.31248c-0.0625,-0.0625 -0.125,-0.125 -0.125,0c0,0.56249 0.03399,1.37575 0,2.12497c-0.03128,0.68962 -0.11024,1.11023 -0.25,1.24998c-0.13975,0.13975 -0.6339,0.07972 -1.24998,-0.25c-0.88852,-0.47552 -1.77578,-1.10306 -2.24996,-1.68747c-0.31748,-0.39128 -0.40554,-0.81436 -0.37499,-1.06248c0.03149,-0.25576 0.31988,-0.39846 0.74999,-0.49999c0.3847,-0.09082 0.99976,-0.14503 1.43748,0.25c0.52902,0.47742 0.87461,1.2397 0.93748,1.81247c0.04092,0.37276 -0.1875,0.56249 -0.43749,0.56249c-0.125,0 -0.36939,-0.0043 -0.56249,-0.25c-0.29412,-0.37423 -0.37438,-0.86188 -0.43749,-1.31248c-0.04334,-0.30947 0.1145,-0.58616 0.37499,-0.68749c0.42405,-0.16495 1.06716,-0.21997 1.56248,-0.3125c0.25331,-0.04732 0.37499,-0.0625 0.43749,-0.0625c0.0625,0 0.3125,0.0625 0.56249,0.0625c0.0625,0 0.15706,0.02537 0.25,-0.125c0.1039,-0.16812 0.1629,-0.40866 0.25,-0.56249c0.12696,-0.22424 0.08541,-0.5014 0.0625,-0.68749c-0.03148,-0.25576 -0.27109,-0.45687 -0.37499,-0.62499c-0.04647,-0.07519 -0.17314,-0.25167 -0.1875,-0.3125c-0.03211,-0.13601 -0.22001,-0.27022 -0.3125,-0.37499c-0.14913,-0.16894 -0.26323,-0.23213 -0.43749,-0.37499c-0.13671,-0.11207 -0.35917,-0.2732 -0.62499,-0.43749c-0.11888,-0.07347 -0.14356,-0.16336 -0.31249,-0.31249c-0.10477,-0.09249 -0.23084,-0.27867 -0.3125,-0.3125c-0.05774,-0.02392 -0.0625,0.0625 0,0.0625c0,0 0.00554,0.12136 0.25,0.49999c0.31981,0.49534 0.55218,1.00707 0.81249,1.37498c0.18049,0.2551 0.26384,0.3637 0.3125,0.43749c0.18528,0.28098 0.28101,0.68173 0.3125,0.93749c0.00764,0.06203 -0.05958,-0.0045 -0.25,-0.125c-0.30795,-0.19488 -0.63712,-0.36803 -0.81249,-0.68749c-0.20175,-0.36752 -0.31249,-0.74999 -0.31249,-1.12498c0,-0.1875 0.0625,-0.3125 0.125,-0.3125c0.0625,0 0.22994,0.22817 0.37499,0.56249c0.1811,0.41741 0.2876,0.7636 0.1875,1.12498c-0.09728,0.35121 -0.55178,0.47198 -1.24998,0.49999c-0.6276,0.02518 -1.13791,-0.30079 -1.24998,-0.43749c-0.14287,-0.17427 -0.28632,-0.45353 -0.1875,-0.74999c0.09882,-0.29646 0.37661,-0.33252 0.49999,-0.3125c0.19509,0.03166 0.48077,0.08818 0.68749,0.37499c0.16343,0.22675 0.1875,0.43749 0.1875,0.62499c0,0.125 -0.18813,0.20522 -0.43749,0.1875c-0.44082,-0.03133 -0.64213,-0.18031 -0.68749,-0.3125c-0.10342,-0.30143 -0.19649,-0.63887 0.0625,-0.93749c0.18313,-0.21115 0.44883,-0.33341 0.74999,-0.25c0.35121,0.09728 0.63723,0.55572 0.87499,0.99998c0.19783,0.36965 0.25,0.56249 0.25,0.62499c0,0 -0.15146,0.03573 -0.49999,-0.25c-0.13671,-0.11207 -0.21789,-0.23898 -0.25,-0.37499c-0.05744,-0.24331 -0.08839,-0.4116 0,-0.49999c0.04419,-0.04419 0.125,0.0625 0.25,0.125l0,0.0625" id="svg_4" stroke="#000" fill="none"/>
  <path d="m12.56246,4.38759c0,-0.0625 -0.0625,-0.0625 -0.125,-0.0625c-0.0625,0 -0.1875,0 -0.3125,0c-0.0625,0 -0.0625,-0.0625 -0.1875,-0.0625c-0.0625,0 -0.0808,-0.01831 -0.125,-0.0625c-0.08839,-0.08839 -0.23243,-0.14439 -0.43749,-0.31249c-0.17427,-0.14287 -0.3125,-0.25 -0.37499,-0.25c-0.0625,0 -0.0625,0 -0.1875,0l-0.125,0l-0.0625,0" id="svg_5" stroke="#000" fill="none"/>
  <path d="m8.25003,16.1999c0,-0.0625 0.0625,-0.0625 0.125,-0.0625c0.125,0 0.24423,-0.03101 0.49999,-0.0625c0.18609,-0.02291 0.2683,0.04419 0.3125,0c0.04419,-0.04419 -0.23151,-0.21254 -0.56249,-0.43749c-0.41674,-0.28324 -0.86469,-0.36085 -0.99998,-0.68749c-0.02392,-0.05774 -0.0625,-0.0625 -0.0625,-0.0625c-0.125,-0.0625 -0.31249,-0.1875 -0.62499,-0.3125c-0.3125,-0.125 -0.37499,-0.1875 -0.43749,-0.1875c-0.0625,0 -0.06891,-0.02297 -0.1875,-0.0625c-0.29646,-0.09882 -0.54054,-0.13723 -0.68749,-0.37499c-0.03286,-0.05316 -0.125,-0.0625 -0.31249,-0.1875c-0.1875,-0.125 -0.41828,-0.19912 -0.49999,-0.3125c-0.05168,-0.0717 -0.17985,-0.19162 -0.25,-0.3125c-0.11311,-0.1949 -0.2254,-0.34616 -0.31249,-0.49999c-0.12696,-0.22424 -0.125,-0.56249 -0.25,-0.99998c-0.125,-0.43749 -0.25,-0.87499 -0.25,-1.24998c0,-0.37499 0,-0.74999 0.0625,-1.24998c0.0625,-0.49999 -0.02456,-0.96297 0.125,-1.31248c0.12294,-0.2873 0.4445,-0.49489 0.62499,-0.74999c0.13015,-0.18396 0.27406,-0.39824 0.43749,-0.62499c0.20672,-0.28681 0.57641,-0.42024 0.81249,-0.62499c0.06677,-0.05791 0.03858,-0.12976 0.0625,-0.1875c0.03382,-0.08166 0.17579,-0.20042 0.3125,-0.3125c0.17427,-0.14287 0.29328,-0.19912 0.37499,-0.3125c0.10336,-0.14341 0.29525,-0.38891 0.49999,-0.62499c0.05791,-0.06677 0.19225,-0.16358 0.25,-0.1875c0.08166,-0.03382 0.25,-0.125 0.43749,-0.25c0.1875,-0.125 0.36398,-0.21789 0.49999,-0.25c0.12165,-0.02872 0.38495,-0.03816 0.56249,-0.125c0.20243,-0.099 0.32081,-0.16059 0.56249,-0.25c0.13107,-0.04849 0.25,-0.0625 0.49999,-0.0625c0.1875,0 0.37499,0 0.62499,0c0.25,0 0.43749,0 0.62499,0l0.1875,0.0625l0.0625,0l0.0625,0" id="svg_7" stroke="#000" fill="none"/>
 </g>

</svg>