<svg width="120" height="120" xmlns="http://www.w3.org/2000/svg" class="icon icon-tabler icon-tabler-circuit-inductor" stroke-width="2" stroke="currentColor" fill="none" stroke-linecap="round" stroke-linejoin="round">
 <g>
  <title>Layer 1</title>
  <ellipse stroke="null" stroke-width="10" cx="198.5" cy="124" id="svg_3" rx="13.5" ry="13.5"/>
  <path stroke="#000000" id="svg_9" d="m3.5,59.99989l0,0c0,-30.9278 25.29594,-55.9999 56.49995,-55.9999l0,0c14.98493,0 29.35607,5.89999 39.95154,16.40205c10.5959,10.50206 16.54852,24.74594 16.54852,39.59785l0,0c0,30.92818 -25.29576,56.00011 -56.50006,56.00011l0,0c-31.20401,0 -56.49995,-25.07193 -56.49995,-56.00011l0,0zm91.23465,25.05157l0,0c12.43943,-16.94428 10.59034,-40.34045 -4.35949,-55.15778c-14.94984,-14.81746 -38.55488,-16.65019 -55.65,-4.32071l60.00949,59.47849zm-69.46906,-50.10262c-12.43952,16.94419 -10.59047,40.34036 4.35928,55.15748c14.9497,14.81755 38.55475,16.65027 55.64988,4.32092l-60.00916,-59.4784l0,0z" stroke-width="5" fill="#fff"/>
 </g>

</svg>