<svg width="120" height="120" xmlns="http://www.w3.org/2000/svg" class="icon icon-tabler icon-tabler-circuit-inductor" stroke-width="2" stroke="currentColor" fill="none" stroke-linecap="round" stroke-linejoin="round">
 <g>
  <title>Layer 1</title>
  <ellipse stroke="null" stroke-width="10" cx="198.5" cy="124" id="svg_3" rx="13.5" ry="13.5"/>
  <path stroke="#000000" id="svg_6" d="m59.99274,19.42797c4.28977,0.00535 8.38786,0.73832 12.26895,1.96281l-3.0716,5.24237l21.80337,0l-5.45224,-9.31797l-5.44808,-9.31518l-2.86791,4.9085c-5.37492,-1.93917 -11.16929,-3.02444 -17.22859,-3.02444c-27.89051,0 -50.49665,22.30945 -50.49665,49.83208c0,11.4228 3.93697,21.91785 10.48896,30.32652l7.67828,-5.81763c-5.29906,-6.79536 -8.48515,-15.27503 -8.50244,-24.50615c0.03859,-22.25169 18.28171,-40.25681 40.82794,-40.29093l0,0zm40.01302,9.97216l-7.67826,5.82041c5.29773,6.79278 8.48383,15.2671 8.49841,24.50096c-0.0386,22.25151 -18.28171,40.25405 -40.82925,40.29072c-3.99556,-0.0051 -7.81808,-0.64622 -11.46216,-1.7184l2.89048,-4.93229l-21.80328,0l5.44821,9.31281l5.45214,9.32566l3.03965,-5.20544c5.15522,1.77099 10.67258,2.75902 16.43497,2.76159c27.89454,-0.00513 50.49679,-22.3146 50.50335,-49.83725c-0.00655,-11.42278 -3.94632,-21.91526 -10.49424,-30.31876l0,0z" stroke-width="5" fill="#fff"/>
 </g>

</svg>